<?xml version="1.0" encoding="UTF-8" standalone="no"?>
<svg
   xmlns:dc="http://purl.org/dc/elements/1.1/"
   xmlns:cc="http://creativecommons.org/ns#"
   xmlns:rdf="http://www.w3.org/1999/02/22-rdf-syntax-ns#"
   xmlns:svg="http://www.w3.org/2000/svg"
   xmlns="http://www.w3.org/2000/svg"
   xmlns:sodipodi="http://sodipodi.sourceforge.net/DTD/sodipodi-0.dtd"
   xmlns:inkscape="http://www.inkscape.org/namespaces/inkscape"
   version="1.1"
   id="Ebene_1"
   x="0px"
   y="0px"
   width="616.22687"
   height="616.22687"
   viewBox="0 0 616.22687 616.22687"
   xml:space="preserve"
   sodipodi:docname="bild-gruen.svg"
   inkscape:version="1.0.2 (e86c870879, 2021-01-15)"><metadata
   id="metadata1085"><rdf:RDF><cc:Work
       rdf:about=""><dc:format>image/svg+xml</dc:format><dc:type
         rdf:resource="http://purl.org/dc/dcmitype/StillImage" /><dc:title></dc:title></cc:Work></rdf:RDF></metadata><defs
   id="defs1083" /><sodipodi:namedview
   pagecolor="#ffffff"
   bordercolor="#666666"
   borderopacity="1"
   objecttolerance="10"
   gridtolerance="10"
   guidetolerance="10"
   inkscape:pageopacity="0"
   inkscape:pageshadow="2"
   inkscape:window-width="1912"
   inkscape:window-height="984"
   id="namedview1081"
   showgrid="false"
   fit-margin-top="0"
   fit-margin-left="0"
   fit-margin-right="0"
   fit-margin-bottom="0"
   inkscape:zoom="0.95703125"
   inkscape:cx="302.3"
   inkscape:cy="308.22522"
   inkscape:window-x="1920"
   inkscape:window-y="0"
   inkscape:window-maximized="1"
   inkscape:current-layer="Ebene_1"
   inkscape:document-rotation="0" />
<style
   type="text/css"
   id="style1076">
	.st0{fill:#17BEBB;}
</style>
<path
   class="st0"
   d="m 610.1,322.72522 c -0.2,-3.3 -0.4,-6.5 -0.8,-9.8 -0.4,-3.3 -0.8,-6.3 -1.2,-9.6 -0.4,-1.4 -0.6,-3.1 -0.8,-4.7 l -1,-4.7 c -0.6,-3.1 -1.2,-6.3 -2,-9.4 -3.5,12.4 -6.5,24.4 -11.2,35 -1.8,5.9 -4.3,11.4 -6.5,17.1 l -3.7,8.4 -1.8,4.1 c -0.6,1.4 -1.4,2.6 -2,4.1 l -4.1,7.9 -4.3,7.7 -2,3.9 -2.2,3.7 -4.5,7.5 -4.9,7.1 c -0.8,1.2 -1.6,2.4 -2.4,3.7 l -2.6,3.5 c -1.6,2.2 -3.3,4.7 -5.1,6.9 l -5.3,6.7 c -28.9,34.8 -64.6,61.5 -103.3,78 -9.6,4.1 -19.3,7.9 -29.3,10.6 -4.9,1.4 -10,2.6 -14.9,3.9 -2.4,0.4 -5.1,0.8 -7.5,1.4 l -3.7,0.8 -3.9,0.6 -7.5,1.2 -7.5,0.8 -3.9,0.4 -3.9,0.2 -7.5,0.6 -7.5,0.2 c -2.4,0 -5.1,0.2 -7.5,0 l -7.5,-0.2 c -2.4,-0.2 -4.9,-0.4 -7.3,-0.6 -39.3,-3.1 -76.8,-16.9 -108.4,-39.3 -10.7,-7.6 -20.8,-16.2 -30,-25.7 -31.5,-42.1 -43.1,-81 -42.6,-115.1 h 0.1 c 0.2,-6.9 0.8,-13.5 1.6,-19.8 8.3,-53.4 45.8,-92.5 75.6,-109.5 8.8,-4.4 17.2,-7.5 24.7,-9.3 0,0 0,0 0,0 -1.6,3.9 -8.1,10.2 -12.6,25.1 -0.6,2 -1,4.3 -1.6,6.5 -0.4,2.2 -0.6,4.5 -0.8,6.7 -0.6,4.5 -0.4,9 0,13.2 0.2,4.5 1.2,8.8 2,13 2.2,8.4 5.3,16.3 9,23.6 1.6,3.9 3.9,7.1 5.7,10.6 l 2.9,5.1 3.3,4.7 3.1,4.7 1.6,2.4 c 0.6,0.8 1.2,1.4 1.6,2.2 l 6.9,8.6 c 1,1.4 2.4,2.6 3.7,4.1 l 3.7,3.9 c 1.4,1.6 3.9,5.3 3.9,5.3 -0.4,8.6 -8.1,27.5 -16.5,31.4 -4.7,2.2 -9.8,2.9 -14.5,2 -1,-0.4 -2,-0.6 -2.9,-0.8 -2.6,-0.4 -5.5,-0.4 -8.4,0 -1.8,0.4 -3.9,1 -5.7,1.8 -11.4,5.5 -16.3,19.1 -10.8,30.6 5.5,11.5 19.1,16.3 30.6,10.8 1.8,-0.8 3.5,-2 4.9,-3.3 2.2,-1.8 3.9,-4.1 5.3,-6.5 0.4,-0.8 0.8,-1.8 1.2,-2.9 2.2,-4.3 5.9,-7.9 10.6,-10.2 7.5,-3.7 16.1,-2.9 22.8,1.2 6.5,5.3 10,13.8 8.4,22.6 -0.8,5.1 -3.5,9.6 -6.9,13 -0.8,0.6 -1.6,1.2 -2.2,2 -2,1.8 -3.7,4.3 -4.9,6.7 -0.8,1.8 -1.4,3.7 -1.8,5.7 -2.2,12.4 6.1,24.4 18.7,26.7 12.4,2.2 24.4,-6.1 26.7,-18.7 0.4,-2 0.4,-4.1 0.2,-5.9 -0.2,-2.9 -1,-5.5 -2.2,-7.9 -0.4,-0.8 -1,-1.8 -1.4,-2.6 -2,-4.3 -2.9,-9.4 -2,-14.5 1.6,-9 7.9,-15.9 16.1,-18.5 7.5,-1.8 15.7,0 21.8,5.7 3.9,3.5 6.1,8.1 7.1,12.8 0,1 0.2,2 0.4,3.1 0.6,2.6 1.6,5.3 3.1,7.7 1,1.6 2.2,3.3 3.9,4.7 9.4,8.6 23.8,8.1 32.4,-1 8.6,-9.4 8.1,-23.8 -1,-32.4 -1.4,-1.4 -3.1,-2.4 -4.9,-3.5 -2.4,-1.4 -5.1,-2.2 -7.9,-2.4 -1,-0.2 -2,-0.2 -3.1,-0.2 -4.9,-0.6 -9.4,-2.6 -13.2,-6.1 -6.3,-5.9 -8.6,-14.3 -7.1,-22 2.2,-7.9 8.6,-14.5 17.1,-16.7 5.1,-1.2 10.2,-0.8 14.7,1 0.8,0.4 1.8,1 2.6,1.2 2.6,1 5.3,1.6 8.1,1.6 2,0 3.9,-0.2 5.9,-0.6 12.2,-3.1 19.8,-15.5 16.7,-27.7 -3.1,-12.2 -15.5,-19.8 -27.7,-16.7 -2,0.4 -3.9,1.2 -5.5,2.2 -2.4,1.4 -4.7,3.1 -6.5,5.3 -0.6,0.8 -1.2,1.6 -1.8,2.4 -3.1,3.7 -7.3,6.5 -12.4,7.7 -8.8,2 -17.3,-0.8 -23,-6.9 -4.5,-6.3 -5.9,-14.9 -2.9,-22.6 1.8,-4.9 5.3,-8.8 9.4,-11.2 1,-0.4 1.8,-0.8 2.6,-1.4 2.2,-1.4 4.5,-3.5 6.1,-5.7 1.2,-1.6 2.2,-3.3 2.9,-5.1 4.7,-11.8 -1,-25.1 -12.8,-29.9 -11.8,-4.7 -25.1,1 -29.9,12.8 -0.8,1.8 -1.2,3.9 -1.4,5.7 -0.4,2.9 -0.2,5.7 0.6,8.4 0.2,1 0.6,2 1,2.9 1.2,4.7 1,9.8 -1,14.7 -2.9,7.1 -17.5,17.7 -27.1,21.2 -20.1,-29.7 -34.4,-60.2 -2.6,-120.2 16.3,-1.8 33.4,-1.6 51.3,0.8 17.1,10.6 37.3,20.4 59.7,29.3 36.1,14.3 75.4,27.3 109,31.8 10.6,1.4 20.6,2 29.7,1.6 23.8,-1.2 42.2,-9.6 49.9,-29.1 14.7,-33.8 -24,-97.4 -73.5,-147.100004 2.6,-29.9 -17.1,-58.7 -48.1,-67.1999997 -15.3,-4.1 -30.8,-2.60000004 -44,3.1 -10.6,-3.7 -40.5,-5.70000004 -77.9,-3.6 -45.7,1.1 -88.1,8.4999997 -126.9,21.3999997 C 101.7,57.425216 6,174.72522 6,314.42522 c 0,159.1 124.1,289.3 281.5,300.4 1.9,0.2 3.8,0.4 5.7,0.6 3.7,0.4 7.5,0.4 11.2,0.6 2,0 3.9,0.2 5.7,0.2 h 5.7 c 59.3,0.2 117.7,-17.5 166,-49.1 48.3,-31.4 86,-76.6 107.7,-127.1 l 3.9,-9.6 c 1.2,-3.1 2.2,-6.3 3.5,-9.6 l 1.6,-4.9 c 0.4,-1.6 1,-3.3 1.4,-4.9 l 2.9,-9.8 2.2,-9.8 1,-4.9 0.8,-4.9 c 0.6,-3.5 1.2,-6.7 1.6,-10 l 1,-10 c 0,-1.6 0.2,-3.3 0.4,-4.9 l 0.2,-4.9 c 0.2,-3.3 0.4,-6.5 0.4,-9.8 v -9.8 c 0.2,-3 -0.1,-6.2 -0.3,-9.5 z"
   id="path1078" />
</svg>
