<?xml version="1.0" encoding="UTF-8" standalone="no"?>
<svg
   xmlns:dc="http://purl.org/dc/elements/1.1/"
   xmlns:cc="http://creativecommons.org/ns#"
   xmlns:rdf="http://www.w3.org/1999/02/22-rdf-syntax-ns#"
   xmlns:svg="http://www.w3.org/2000/svg"
   xmlns="http://www.w3.org/2000/svg"
   xmlns:sodipodi="http://sodipodi.sourceforge.net/DTD/sodipodi-0.dtd"
   xmlns:inkscape="http://www.inkscape.org/namespaces/inkscape"
   version="1.1"
   id="Ebene_1"
   x="0px"
   y="0px"
   width="943.60431"
   height="237.42229"
   viewBox="0 0 943.60434 237.42229"
   xml:space="preserve"
   sodipodi:docname="tokay.svg"
   inkscape:version="1.0.2 (e86c870879, 2021-01-15)"><metadata
   id="metadata61"><rdf:RDF><cc:Work
       rdf:about=""><dc:format>image/svg+xml</dc:format><dc:type
         rdf:resource="http://purl.org/dc/dcmitype/StillImage" /><dc:title></dc:title></cc:Work></rdf:RDF></metadata><defs
   id="defs59" /><sodipodi:namedview
   pagecolor="#ffffff"
   bordercolor="#666666"
   borderopacity="1"
   objecttolerance="10"
   gridtolerance="10"
   guidetolerance="10"
   inkscape:pageopacity="0"
   inkscape:pageshadow="2"
   inkscape:window-width="1912"
   inkscape:window-height="984"
   id="namedview57"
   showgrid="false"
   inkscape:zoom="0.95703125"
   inkscape:cx="620.3043"
   inkscape:cy="156.57551"
   inkscape:window-x="1920"
   inkscape:window-y="0"
   inkscape:window-maximized="1"
   inkscape:current-layer="Ebene_1"
   fit-margin-top="0"
   fit-margin-left="0"
   fit-margin-right="0"
   fit-margin-bottom="0"
   inkscape:document-rotation="0" />
<style
   type="text/css"
   id="style2">
	.st0{fill:#17BEBB;}
	.st1{enable-background:new    ;}
	.st2{fill:#F26430;}
</style>
<path
   class="st0"
   d="m 228.74603,126.2878 c -0.0771,-1.23396 -0.15424,-2.46792 -0.30849,-3.70189 -0.15425,-1.23396 -0.30849,-2.3908 -0.46274,-3.62476 -0.15424,-0.53986 -0.23136,-1.15685 -0.30849,-1.77383 l -0.38561,-1.77382 c -0.23137,-1.15684 -0.46274,-2.3908 -0.77123,-3.54765 -1.31108,4.70449 -2.46793,9.25473 -4.24175,13.26511 -0.6941,2.23656 -1.61958,4.31888 -2.46793,6.47831 l -1.3882,3.16203 -0.69411,1.54246 c -0.23137,0.53986 -0.53986,1.00259 -0.77123,1.54245 l -1.54245,3.00779 -1.61958,2.93066 -0.77123,1.46534 -0.84835,1.3882 -1.6967,2.85355 -1.85094,2.69929 c -0.30849,0.46274 -0.61698,0.92547 -0.92547,1.38821 l -1.0026,1.31109 c -0.61698,0.84835 -1.23396,1.77382 -1.92807,2.62217 l -2.00519,2.54505 c -10.95143,13.18799 -24.4479,23.29106 -39.10122,29.538 -3.62477,1.54246 -7.32666,3.00779 -11.10567,4.01039 -1.85095,0.53985 -3.77902,1.00259 -5.62996,1.46533 -0.92548,0.15424 -1.92807,0.30849 -2.85354,0.53986 l -1.38821,0.30849 -1.46534,0.23137 -2.85354,0.46273 -2.85354,0.30849 -1.46533,0.15425 -1.46533,0.0771 -2.85354,0.23137 -2.85354,0.0771 c -0.92548,0 -1.92807,0.0771 -2.85354,0 l -2.85355,-0.0771 c -0.92547,-0.0771 -1.85094,-0.15425 -2.77641,-0.23137 -14.88469,-1.15684 -29.07527,-6.40119 -41.02929,-14.88469 -4.08751,-2.85354 -7.86652,-6.16981 -11.33705,-9.71746 -11.95402,-15.9644 -16.35001,-30.69484 -16.11865,-43.57434 v 0 c 0.0771,-2.62217 0.3085,-5.0901 0.61699,-7.4809 3.16203,-20.20616 17.35261,-35.01372 28.61253,-41.49203 3.31628,-1.6967 6.55543,-2.85354 9.33185,-3.54765 0,0 0,0 0,0 -0.61698,1.46533 -3.08491,3.85614 -4.78161,9.4861 -0.23137,0.77123 -0.38561,1.61958 -0.61698,2.46793 -0.15425,0.84835 -0.23137,1.6967 -0.30849,2.54505 -0.23137,1.6967 -0.15425,3.3934 0,5.01297 0.0771,1.6967 0.46273,3.31628 0.77122,4.93586 0.84835,3.16203 2.00519,6.16982 3.3934,8.94623 0.61699,1.46534 1.46534,2.6993 2.15944,4.01039 l 1.07972,1.92806 1.23396,1.77383 1.15684,1.77382 0.61698,0.92547 c 0.23137,0.30849 0.46274,0.53986 0.61699,0.84835 l 2.62217,3.23916 c 0.38561,0.53986 0.92547,1.00259 1.38821,1.54245 l 1.38821,1.46533 c 0.53986,0.61698 1.46533,2.00519 1.46533,2.00519 -0.15425,3.23916 -3.08491,10.41157 -6.24694,11.8769 -1.77382,0.84835 -3.70189,1.07972 -5.47572,0.77123 -0.38561,-0.15424 -0.77122,-0.23137 -1.07971,-0.30849 -1.0026,-0.15425 -2.08232,-0.15425 -3.16204,0 -0.6941,0.15425 -1.46533,0.38561 -2.15943,0.6941 -4.31887,2.08232 -6.16982,7.24954 -4.08751,11.56841 2.08232,4.31888 7.24954,6.16982 11.56841,4.08751 0.69411,-0.30849 1.31109,-0.77123 1.85095,-1.23397 0.84835,-0.6941 1.46533,-1.54245 2.00519,-2.46792 0.15424,-0.30849 0.30849,-0.69411 0.46274,-1.07972 0.84835,-1.61958 2.23655,-3.00779 4.01038,-3.85614 2.85354,-1.38821 6.09269,-1.07972 8.63774,0.46274 2.46793,2.00519 3.77902,5.24434 3.16203,8.56062 -0.30849,1.92807 -1.31108,3.62477 -2.62217,4.93586 -0.30849,0.23136 -0.61698,0.46273 -0.84835,0.77122 -0.77123,0.69411 -1.38821,1.61958 -1.85094,2.54505 -0.30849,0.69411 -0.53986,1.38821 -0.69411,2.15944 -0.84835,4.70449 2.31368,9.25473 7.09529,10.10308 4.70449,0.84835 9.25473,-2.31368 10.10308,-7.09529 0.15425,-0.77123 0.15425,-1.54246 0.0771,-2.23656 -0.0771,-1.07972 -0.38561,-2.08232 -0.84835,-3.00779 -0.15424,-0.30849 -0.38561,-0.6941 -0.53986,-1.00259 -0.77122,-1.61958 -1.07971,-3.54765 -0.77122,-5.47572 0.61698,-3.3934 3.00778,-6.01557 6.09269,-7.01817 2.85354,-0.6941 5.93845,0 8.25213,2.15944 1.46534,1.31109 2.31369,3.08491 2.6993,4.85873 0,0.38562 0.0771,0.77123 0.15425,1.15684 0.23136,1.0026 0.61698,2.00519 1.15684,2.93067 0.38561,0.61698 0.84835,1.23396 1.46533,1.77382 3.54764,3.23915 9.02336,3.08491 12.26251,-0.38561 3.23916,-3.54765 3.08491,-9.02336 -0.38561,-12.26252 -0.53986,-0.53986 -1.15684,-0.92547 -1.85095,-1.31108 -0.92547,-0.53986 -1.92807,-0.84835 -3.00778,-0.92548 -0.38562,-0.0771 -0.77123,-0.0771 -1.15684,-0.0771 -1.85095,-0.23137 -3.54765,-1.0026 -5.01298,-2.31368 -2.39081,-2.23656 -3.23916,-5.39859 -2.6993,-8.32926 0.84835,-3.00778 3.23916,-5.47571 6.47831,-6.32406 1.92807,-0.46274 3.85614,-0.30849 5.55284,0.38561 0.30849,0.15425 0.6941,0.38562 1.00259,0.46274 1.0026,0.38561 2.00519,0.61698 3.08491,0.61698 0.77123,0 1.46533,-0.0771 2.23656,-0.23137 4.62737,-1.15684 7.48091,-5.86132 6.32407,-10.48869 -1.15685,-4.62736 -5.86133,-7.4809 -10.4887,-6.32406 -0.77122,0.15424 -1.46533,0.46274 -2.08231,0.84835 -0.92547,0.53986 -1.77382,1.15684 -2.46793,2.00519 -0.23136,0.30849 -0.46273,0.61698 -0.6941,0.92547 -1.15684,1.38821 -2.77642,2.46793 -4.70449,2.93067 -3.31627,0.77122 -6.55543,-0.30849 -8.71487,-2.62218 -1.6967,-2.3908 -2.23656,-5.62996 -1.07971,-8.56062 0.6941,-1.85094 2.00519,-3.31628 3.54764,-4.24175 0.38562,-0.15424 0.69411,-0.30849 1.0026,-0.53986 0.84835,-0.53986 1.6967,-1.31108 2.31368,-2.15943 0.46274,-0.61699 0.84835,-1.23397 1.07972,-1.92807 1.77382,-4.47312 -0.38562,-9.4861 -4.85873,-11.33704 -4.47312,-1.77383 -9.4861,0.38561 -11.33705,4.85873 -0.30849,0.6941 -0.46273,1.46533 -0.53986,2.15943 -0.15424,1.07972 -0.0771,2.15944 0.23137,3.16204 0.0771,0.38561 0.23137,0.77122 0.38562,1.07971 0.46273,1.77383 0.38561,3.7019 -0.38562,5.55284 -1.07972,2.6993 -6.63255,6.70968 -10.25732,8.02076 -7.63515,-11.25991 -13.03374,-22.82832 -1.0026,-45.5024 6.16982,-0.69411 12.64813,-0.61699 19.43493,0.30849 6.47831,4.01038 14.11346,7.71227 22.59696,11.10567 13.65072,5.39859 28.53541,10.33444 41.26066,12.03114 4.01038,0.53986 7.7894,0.77123 11.25992,0.61699 9.02336,-0.46274 15.9644,-3.62477 18.89507,-11.02855 5.55283,-12.80238 -9.10048,-36.86467 -27.84131,-55.68261 1.0026,-11.33704 -6.47831,-22.21135 -18.20096,-25.4505 -5.7842,-1.54246 -11.64553,-1.0026 -16.65851,1.15684 C 158.56433,4.81951 147.22729,4.04828 133.03671,4.81951 116.0697,5.128 100.02818,7.98154 85.37486,12.84027 36.24768,25.79689 0,70.21958 0,123.12577 c 0,60.23285 47.04486,109.51428 106.58361,113.75603 0.6941,0.0771 1.46533,0.15424 2.15944,0.23136 1.3882,0.15425 2.85354,0.15425 4.24175,0.23137 0.77122,0 1.46533,0.0771 2.15943,0.0771 h 2.15944 c 22.44271,0.0771 44.57694,-6.63256 62.85502,-18.58658 18.27809,-11.8769 32.54579,-28.99815 40.79792,-48.12458 l 1.46534,-3.62477 c 0.46273,-1.15684 0.84835,-2.39081 1.31108,-3.62477 l 0.61698,-1.85095 c 0.15425,-0.61698 0.38562,-1.23396 0.53986,-1.85094 l 1.07972,-3.70189 0.84835,-3.70189 0.38562,-1.85095 0.30849,-1.85094 c 0.23136,-1.31109 0.46273,-2.54505 0.61698,-3.77902 l 0.38561,-3.77901 c 0,-0.61698 0.0771,-1.23397 0.15425,-1.85095 l 0.0771,-1.85094 c 0.0771,-1.23397 0.15424,-2.46793 0.15424,-3.70189 v -3.70189 c 0,-1.23397 -0.0771,-2.46793 -0.15424,-3.7019 z"
   id="path4"
   style="mix-blend-mode:multiply;stroke-width:0.771227" />
<path
   d="M 297.0043,74.8 V 42 h 12.7 V 21.6 l 50.9,-12.7 V 42 h 17.6 v 32.8 h -17.6 v 58 c 4.4,0.9 9.4,1.4 15,1.8 l -2.3,37.4 c -23.2,0 -38.3,-1.3 -45.3,-3.8 -8.7,-3.1 -14.1,-7.1 -16.3,-12.2 -1.4,-3.1 -2,-6.6 -2,-10.7 V 74.8 Z"
   id="path6"
   style="mix-blend-mode:multiply" />
<path
   d="m 609.5043,169.3 -19.6,-50.4 h -1.8 v 50.4 h -50.9 V 3.8 l 50.9,-3.8 v 84 h 1.8 l 18.3,-42 h 55 l -29.5,60.6 30.8,66.7 z"
   id="path8"
   style="mix-blend-mode:multiply" />
<path
   d="m 740.1043,38.2 c 40.7,0 61.1,14 61.1,42 v 89.1 h -25.5 l -14.5,-14.5 c -4.9,5.8 -11.6,10.3 -20.1,13.5 -8.5,3.2 -16.5,4.8 -24.1,4.8 -7.6,0 -13.6,-0.6 -18.2,-1.8 -4.6,-1.2 -9.1,-3.2 -13.5,-6.1 -9.7,-6.1 -14.5,-17.5 -14.5,-34.1 0,-30.5 23.1,-45.8 69.2,-45.8 h 10.2 v -9.2 c -5.4,-0.3 -9.9,-0.5 -13.5,-0.5 -19.2,0 -35.6,2.3 -49.4,6.9 l -6.1,-36.4 c 17.1,-5.3 36.7,-7.9 58.9,-7.9 z m -17.8,87.3 v 10.4 h 10.4 c 7.5,0 12.3,-0.8 14.4,-2.5 2.1,-1.7 3.2,-3.9 3.2,-6.6 v -12 h -10.4 c -6.1,0 -10.6,0.6 -13.4,1.9 -2.8,1.3 -4.2,4.2 -4.2,8.8 z"
   id="path10"
   style="mix-blend-mode:multiply" />
<path
   d="m 839.8043,156 -28.5,-114 h 50.9 l 14,82.7 h 2.5 l 14,-82.7 h 50.9 l -31.7,127.3 c -4.8,16.6 -10.7,39.8 -17.8,45.5 -7.1,5.7 -17.4,8.5 -30.8,8.5 h -49.4 v -28.1 -1 c 38.6,-6.8 41.3,-12 45,-15.4 2,-1.9 6.5,-18.6 7.9,-21.3 l -0.3,-1.5 z"
   id="path12"
   style="mix-blend-mode:multiply" />
<g
   class="st1"
   id="g52"
   transform="translate(208.3043,-460.2)"
   style="mix-blend-mode:multiply">
	<path
   class="st0"
   d="m 101.3,662.1 h 4.3 l 1.6,2.1 c 1.3,-1.9 3.6,-2.8 7,-2.8 1.7,0 3.3,0.3 4.5,1 1.2,0.7 2.2,1.6 2.9,2.7 1.2,2.1 1.8,4.7 1.8,7.7 0,3.6 -0.8,6.4 -2.4,8.2 -0.6,0.7 -1.5,1.3 -2.5,1.8 -1,0.5 -2.3,0.7 -3.7,0.7 h -4.9 v 6.4 l -8.6,0.6 z m 8.5,7.2 v 8.6 h 1.3 c 1,0 1.8,-0.1 2.3,-0.3 0.5,-0.2 0.7,-0.7 0.7,-1.5 v -8.4 h -1.3 c -0.6,0 -1.1,0 -1.5,0.1 -0.4,0.1 -0.7,0.2 -1,0.5 -0.3,0.2 -0.4,0.5 -0.5,1 z"
   id="path14" />
	<path
   class="st0"
   d="m 127.8,662.1 h 4.3 l 2.4,2.4 c 1.7,-1.5 3.8,-2.6 6.4,-3 l 0.5,8.1 c -0.7,0 -1.6,0.2 -2.7,0.5 -1.1,0.3 -1.9,0.7 -2.3,1.2 v 12.3 h -8.6 z"
   id="path16" />
	<path
   class="st0"
   d="m 146.7,681.4 c -1.8,-1.9 -2.7,-4.7 -2.7,-8.6 0,-3.9 0.9,-6.7 2.7,-8.6 1.8,-1.9 4.7,-2.8 8.7,-2.8 4,0 6.9,0.9 8.7,2.8 1.8,1.9 2.7,4.7 2.7,8.6 0,3.9 -0.9,6.7 -2.7,8.6 -1.8,1.9 -4.7,2.8 -8.7,2.8 -4,0 -6.9,-0.9 -8.7,-2.8 z m 6.6,-11.9 v 8.4 h 1.3 c 1,0 1.8,-0.1 2.3,-0.3 0.5,-0.2 0.7,-0.7 0.7,-1.5 v -8.4 h -1.3 c -1,0 -1.8,0.1 -2.3,0.3 -0.5,0.2 -0.7,0.7 -0.7,1.5 z"
   id="path18" />
	<path
   class="st0"
   d="m 170.1,689.4 1.1,-6.4 c 2.4,0.8 5.3,1.2 8.5,1.2 1,0 1.7,0 2.1,-0.1 v -1.5 c -2.5,0 -4.2,-0.1 -5,-0.3 -0.8,-0.2 -1.3,-0.4 -1.5,-0.6 -0.2,-0.2 -0.4,-0.4 -0.4,-0.5 0,-0.1 -0.1,-0.3 -0.1,-0.6 l 1.3,-3.7 c -2.1,-0.4 -3.6,-1.1 -4.7,-2.3 -1.1,-1.2 -1.6,-3 -1.6,-5.5 0,-2.5 0.8,-4.4 2.5,-5.6 1.7,-1.3 4.4,-1.9 8.2,-1.9 1.4,0 2.6,0.1 3.7,0.3 l 3.7,-2.9 4.5,4.3 -2.4,2.7 c 0.4,1 0.6,2.3 0.6,3.9 0,2.3 -0.6,3.9 -1.7,5 -1.1,1.1 -3.1,1.8 -6,2 l -0.2,1 c 3.1,0.2 5.3,0.6 6.6,1.4 1.3,0.8 1.9,2.2 1.9,4.2 0,3.5 -1.7,5.6 -5,6.4 -1.7,0.4 -3.9,0.6 -6.7,0.6 -3,0.1 -6.1,-0.3 -9.4,-1.1 z m 7.7,-20.4 v 2.8 h 1.3 c 1,0 1.8,-0.1 2.3,-0.3 0.5,-0.2 0.7,-0.7 0.7,-1.5 v -2.8 h -1.3 c -1,0 -1.8,0.1 -2.3,0.3 -0.5,0.2 -0.7,0.7 -0.7,1.5 z"
   id="path20" />
	<path
   class="st0"
   d="m 195.3,662.1 h 4.3 l 2.4,2.4 c 1.7,-1.5 3.8,-2.6 6.4,-3 l 0.5,8.1 c -0.7,0 -1.6,0.2 -2.7,0.5 -1.1,0.3 -1.9,0.7 -2.3,1.2 v 12.3 h -8.6 z"
   id="path22" />
	<path
   class="st0"
   d="m 222.5,661.4 c 6.9,0 10.3,2.4 10.3,7.1 v 15 h -4.3 l -2.4,-2.4 c -0.8,1 -2,1.7 -3.4,2.3 -1.4,0.5 -2.8,0.8 -4.1,0.8 -1.3,0 -2.3,-0.1 -3.1,-0.3 -0.8,-0.2 -1.5,-0.5 -2.3,-1 -1.6,-1 -2.4,-2.9 -2.4,-5.8 0,-5.2 3.9,-7.7 11.7,-7.7 h 1.7 v -1.5 c -0.9,-0.1 -1.7,-0.1 -2.3,-0.1 -3.2,0 -6,0.4 -8.3,1.2 l -1,-6.1 c 2.9,-1 6.2,-1.5 9.9,-1.5 z m -3,14.8 v 1.8 h 1.8 c 1.3,0 2.1,-0.1 2.4,-0.4 0.4,-0.3 0.5,-0.7 0.5,-1.1 v -2 h -1.8 c -1,0 -1.8,0.1 -2.3,0.3 -0.3,0.1 -0.6,0.6 -0.6,1.4 z"
   id="path24" />
	<path
   class="st0"
   d="m 249.7,668.5 h -0.6 c -0.7,0 -1.2,0 -1.5,0.1 -0.3,0.1 -0.6,0.2 -0.9,0.5 -0.3,0.3 -0.4,0.8 -0.4,1.4 v 13.1 h -8.6 v -21.5 h 4.3 l 1.9,2 c 1.7,-1.7 4,-2.6 6.9,-2.6 2.9,0 4.9,0.6 6.1,1.8 1.7,-1.2 3.8,-1.8 6.1,-1.8 2.3,0 4.1,0.4 5.4,1.3 1.3,0.9 1.9,2.1 1.9,3.6 v 17.2 h -8.6 v -15 h -0.6 c -0.6,0 -1.1,0 -1.4,0.1 -0.3,0.1 -0.7,0.2 -0.9,0.5 -0.3,0.3 -0.4,0.6 -0.5,1.2 v 13.3 h -8.6 z"
   id="path26" />
	<path
   class="st0"
   d="m 287.4,668.5 h -0.6 c -0.7,0 -1.2,0 -1.5,0.1 -0.3,0.1 -0.6,0.2 -0.9,0.5 -0.3,0.3 -0.4,0.8 -0.4,1.4 v 13.1 h -8.6 v -21.5 h 4.3 l 1.9,2 c 1.7,-1.7 4,-2.6 6.9,-2.6 2.9,0 4.9,0.6 6.1,1.8 1.7,-1.2 3.8,-1.8 6.1,-1.8 2.3,0 4.1,0.4 5.4,1.3 1.3,0.9 1.9,2.1 1.9,3.6 v 17.2 h -8.6 v -15 h -0.6 c -0.6,0 -1.1,0 -1.4,0.1 -0.3,0.1 -0.7,0.2 -0.9,0.5 -0.3,0.3 -0.4,0.6 -0.5,1.2 v 13.3 h -8.6 z"
   id="path28" />
	<path
   class="st0"
   d="m 313.5,660.7 c -0.6,-0.5 -1,-1.4 -1,-2.7 0,-1.3 0.3,-2.2 1,-2.7 0.7,-0.5 1.9,-0.8 3.8,-0.8 1.9,0 3.2,0.3 3.8,0.8 0.6,0.5 1,1.4 1,2.7 0,1.3 -0.3,2.2 -1,2.7 -0.6,0.5 -1.9,0.7 -3.8,0.7 -1.8,0 -3.1,-0.2 -3.8,-0.7 z m -0.4,22.9 v -20.4 l 8.6,-1.1 v 21.5 z"
   id="path30" />
	<path
   class="st0"
   d="m 331.2,662.1 2.1,2.1 c 2.7,-1.9 5.5,-2.8 8.6,-2.8 2,0 3.6,0.4 4.7,1.3 1.1,0.9 1.7,2.1 1.7,3.6 v 17.2 h -8.6 v -15 h -1.3 c -1,0 -1.7,0.1 -2.2,0.3 -0.5,0.2 -0.8,0.7 -0.8,1.3 v 13.4 h -8.6 V 662 h 4.4 z"
   id="path32" />
	<path
   class="st0"
   d="m 352.3,689.4 1.1,-6.4 c 2.4,0.8 5.3,1.2 8.5,1.2 1,0 1.7,0 2.1,-0.1 v -1.5 c -2.5,0 -4.2,-0.1 -5,-0.3 -0.8,-0.2 -1.3,-0.4 -1.5,-0.6 -0.2,-0.2 -0.4,-0.4 -0.4,-0.5 0,-0.1 -0.1,-0.3 -0.1,-0.6 l 1.3,-3.7 c -2.1,-0.4 -3.6,-1.1 -4.7,-2.3 -1.1,-1.2 -1.6,-3 -1.6,-5.5 0,-2.5 0.8,-4.4 2.5,-5.6 1.7,-1.3 4.4,-1.9 8.2,-1.9 1.4,0 2.6,0.1 3.7,0.3 l 3.7,-2.9 4.5,4.3 -2.4,2.9 c 0.4,1 0.6,2.3 0.6,3.9 0,2.3 -0.6,3.9 -1.7,5 -1.1,1.1 -3.1,1.8 -6,2 l -0.2,1 c 3.1,0.2 5.3,0.6 6.6,1.4 1.3,0.8 1.9,2.2 1.9,4.2 0,3.5 -1.7,5.6 -5,6.4 -1.7,0.4 -3.9,0.6 -6.7,0.6 -2.9,-0.1 -6,-0.5 -9.4,-1.3 z m 7.8,-20.4 v 2.8 h 1.3 c 1,0 1.8,-0.1 2.3,-0.3 0.5,-0.2 0.7,-0.7 0.7,-1.5 v -2.8 H 363 c -1,0 -1.8,0.1 -2.3,0.3 -0.5,0.2 -0.6,0.7 -0.6,1.5 z"
   id="path34" />
	<path
   class="st0"
   d="m 393.5,655 v 22.4 c 0.9,0.2 1.6,0.3 2.1,0.3 l -0.4,6.3 c -3.7,0 -6.1,-0.2 -7.3,-0.6 -1.5,-0.5 -2.4,-1.2 -2.7,-2.1 -0.2,-0.5 -0.3,-1.1 -0.3,-1.8 v -23.9 z"
   id="path36" />
	<path
   class="st0"
   d="m 409.4,661.4 c 6.9,0 10.3,2.4 10.3,7.1 v 15 h -4.3 l -2.4,-2.4 c -0.8,1 -2,1.7 -3.4,2.3 -1.4,0.5 -2.8,0.8 -4.1,0.8 -1.3,0 -2.3,-0.1 -3.1,-0.3 -0.8,-0.2 -1.5,-0.5 -2.3,-1 -1.6,-1 -2.4,-2.9 -2.4,-5.8 0,-5.2 3.9,-7.7 11.7,-7.7 h 1.7 v -1.5 c -0.9,-0.1 -1.7,-0.1 -2.3,-0.1 -3.2,0 -6,0.4 -8.3,1.2 l -1,-6.1 c 2.8,-1 6.1,-1.5 9.9,-1.5 z m -3,14.8 v 1.8 h 1.8 c 1.3,0 2.1,-0.1 2.4,-0.4 0.4,-0.3 0.5,-0.7 0.5,-1.1 v -2 h -1.8 c -1,0 -1.8,0.1 -2.3,0.3 -0.4,0.1 -0.6,0.6 -0.6,1.4 z"
   id="path38" />
	<path
   class="st0"
   d="m 428.8,662.1 2.1,2.1 c 2.7,-1.9 5.5,-2.8 8.6,-2.8 2,0 3.6,0.4 4.7,1.3 1.1,0.9 1.7,2.1 1.7,3.6 v 17.2 h -8.6 v -15 H 436 c -1,0 -1.7,0.1 -2.2,0.3 -0.5,0.2 -0.8,0.7 -0.8,1.3 v 13.4 h -8.6 V 662 h 4.4 z"
   id="path40" />
	<path
   class="st0"
   d="M 449.9,689.4 451,683 c 2.4,0.8 5.3,1.2 8.5,1.2 1,0 1.7,0 2.1,-0.1 v -1.5 c -2.5,0 -4.2,-0.1 -5,-0.3 -0.8,-0.2 -1.3,-0.4 -1.5,-0.6 -0.2,-0.2 -0.4,-0.4 -0.4,-0.5 0,-0.1 -0.1,-0.3 -0.1,-0.6 l 1.3,-3.7 c -2.1,-0.4 -3.6,-1.1 -4.7,-2.3 -1.1,-1.2 -1.6,-3 -1.6,-5.5 0,-2.5 0.8,-4.4 2.5,-5.6 1.7,-1.3 4.4,-1.9 8.2,-1.9 1.4,0 2.6,0.1 3.7,0.3 l 3.7,-2.9 4.5,4.3 -2.4,2.9 c 0.4,1 0.6,2.3 0.6,3.9 0,2.3 -0.6,3.9 -1.7,5 -1.1,1.1 -3.1,1.8 -6,2 l -0.2,1 c 3.1,0.2 5.3,0.6 6.6,1.4 1.3,0.8 1.9,2.2 1.9,4.2 0,3.5 -1.7,5.6 -5,6.4 -1.7,0.4 -3.9,0.6 -6.7,0.6 -2.9,-0.1 -6,-0.5 -9.4,-1.3 z m 7.8,-20.4 v 2.8 h 1.3 c 1,0 1.8,-0.1 2.3,-0.3 0.5,-0.2 0.7,-0.7 0.7,-1.5 v -2.8 h -1.3 c -1,0 -1.8,0.1 -2.3,0.3 -0.5,0.2 -0.7,0.7 -0.7,1.5 z"
   id="path42" />
	<path
   class="st0"
   d="M 483.3,662.1 V 678 h 1.3 c 1,0 1.8,-0.1 2.3,-0.3 0.5,-0.2 0.7,-0.7 0.7,-1.5 v -14 h 8.6 v 21.5 h -4.3 l -2.5,-2.4 c -1.7,2.1 -4.2,3.1 -7.3,3.1 -2.5,0 -4.4,-0.5 -5.6,-1.6 -1.2,-1.1 -1.8,-2.9 -1.8,-5.5 v -15 h 8.6 z"
   id="path44" />
	<path
   class="st0"
   d="m 511.6,661.4 c 6.9,0 10.3,2.4 10.3,7.1 v 15 h -4.3 l -2.4,-2.4 c -0.8,1 -2,1.7 -3.4,2.3 -1.4,0.5 -2.8,0.8 -4.1,0.8 -1.3,0 -2.3,-0.1 -3.1,-0.3 -0.8,-0.2 -1.5,-0.5 -2.3,-1 -1.6,-1 -2.4,-2.9 -2.4,-5.8 0,-5.2 3.9,-7.7 11.7,-7.7 h 1.7 v -1.5 c -0.9,-0.1 -1.7,-0.1 -2.3,-0.1 -3.2,0 -6,0.4 -8.3,1.2 l -1,-6.1 c 2.9,-1 6.2,-1.5 9.9,-1.5 z m -3,14.8 v 1.8 h 1.8 c 1.3,0 2.1,-0.1 2.4,-0.4 0.4,-0.3 0.5,-0.7 0.5,-1.1 v -2 h -1.8 c -1,0 -1.8,0.1 -2.3,0.3 -0.4,0.1 -0.6,0.6 -0.6,1.4 z"
   id="path46" />
	<path
   class="st0"
   d="m 525.6,689.4 1.1,-6.4 c 2.4,0.8 5.3,1.2 8.5,1.2 1,0 1.7,0 2.1,-0.1 v -1.5 c -2.5,0 -4.2,-0.1 -5,-0.3 -0.8,-0.2 -1.3,-0.4 -1.5,-0.6 -0.2,-0.2 -0.4,-0.4 -0.4,-0.5 0,-0.1 -0.1,-0.3 -0.1,-0.6 l 1.3,-3.7 c -2.1,-0.4 -3.6,-1.1 -4.7,-2.3 -1.1,-1.2 -1.6,-3 -1.6,-5.5 0,-2.5 0.8,-4.4 2.5,-5.6 1.7,-1.3 4.4,-1.9 8.2,-1.9 1.4,0 2.6,0.1 3.7,0.3 l 3.7,-2.9 4.5,4.3 -2.4,2.9 c 0.4,1 0.6,2.3 0.6,3.9 0,2.3 -0.6,3.9 -1.7,5 -1.1,1.1 -3.1,1.8 -6,2 l -0.2,1 c 3.1,0.2 5.3,0.6 6.6,1.4 1.3,0.8 1.9,2.2 1.9,4.2 0,3.5 -1.7,5.6 -5,6.4 -1.7,0.4 -3.9,0.6 -6.7,0.6 -2.9,-0.1 -6,-0.5 -9.4,-1.3 z m 7.8,-20.4 v 2.8 h 1.3 c 1,0 1.8,-0.1 2.3,-0.3 0.5,-0.2 0.7,-0.7 0.7,-1.5 v -2.8 h -1.3 c -1,0 -1.8,0.1 -2.3,0.3 -0.5,0.2 -0.7,0.7 -0.7,1.5 z"
   id="path48" />
	<path
   class="st0"
   d="m 559.2,676.3 v 1.5 c 0.9,0.1 1.7,0.1 2.6,0.1 2.7,0 5.4,-0.4 8.1,-1.3 l 1,6.3 c -3.2,0.9 -6.4,1.3 -9.5,1.3 -4,0 -6.9,-0.9 -8.7,-2.8 -1.8,-1.9 -2.7,-4.7 -2.7,-8.6 0,-3.9 0.9,-6.7 2.7,-8.6 1.8,-1.9 4.7,-2.8 8.7,-2.8 4,0 6.8,0.5 8.3,1.6 1.5,1.1 2.3,3.1 2.3,6.1 0,2.5 -0.9,4.3 -2.7,5.4 -2,1.2 -5.3,1.8 -10.1,1.8 z m 0,-6.8 v 1.8 h 1.8 c 1,0 1.8,-0.1 2.3,-0.3 0.5,-0.2 0.7,-0.7 0.7,-1.5 v -1.8 h -1.8 c -1,0 -1.8,0.1 -2.3,0.3 -0.5,0.2 -0.7,0.7 -0.7,1.5 z"
   id="path50" />
</g>
<path
   class="st2"
   d="m 468.4043,125.8 c -3.7,2.3 -9,8 -9.6,11.3 -0.4,2.2 -0.1,4.4 0.8,6.3 0.2,0.3 0.5,0.7 0.7,1.1 0.6,1 0.9,2.2 1,3.5 0.1,0.8 0.1,1.7 -0.1,2.5 -1,5.4 -6.1,9 -11.5,8 -5.4,-1 -9,-6.1 -8,-11.5 0.1,-0.8 0.4,-1.6 0.8,-2.4 0.5,-1.1 1.3,-2.1 2.1,-2.9 0.3,-0.3 0.6,-0.6 1,-0.8 1.5,-1.4 2.6,-3.3 3,-5.5 0.6,-3.5 -0.7,-7 -3.2,-9.3 -2.9,-2.1 -6.8,-2.5 -10.3,-0.9 -2,1 -3.6,2.5 -4.6,4.3 -0.2,0.4 -0.4,0.8 -0.6,1.2 -0.6,1.1 -1.4,2 -2.3,2.8 -0.6,0.6 -1.3,1.1 -2.1,1.4 -4.9,2.4 -10.8,0.3 -13.1,-4.6 -2.4,-4.9 -0.3,-10.8 4.6,-13.1 0.8,-0.3 1.6,-0.6 2.4,-0.8 1.2,-0.2 2.4,-0.2 3.6,0 0.4,0 0.8,0.2 1.2,0.3 2.1,0.4 4.2,0.1 6.3,-0.8 3.4,-1.7 5.5,-5 5.8,-8.5 -0.1,-3.4 -1.7,-6.7 -4.9,-8.7 -1.9,-1.1 -4,-1.6 -6.1,-1.4 -0.4,0.1 -0.9,0.2 -1.3,0.2 -1.2,0.2 -2.4,0 -3.6,-0.3 -0.9,-0.3 -1.6,-0.6 -2.4,-1 -4.6,-2.8 -6,-8.9 -3.2,-13.6 2.8,-4.6 8.9,-6 13.6,-3.2 0.8,0.5 1.5,1 2,1.6 0.8,0.9 1.5,1.9 2,3 0.2,0.4 0.3,0.8 0.4,1.3 0.8,1.9 2.2,3.7 4.1,4.8 3.1,1.9 6.7,1.9 9.7,0.5 3.2,-1.8 5.3,-5.3 5.2,-9.2 -0.1,-2.2 -0.9,-4.3 -2.1,-5.9 -0.2,-0.3 -0.6,-0.7 -0.8,-1 -0.7,-0.9 -1.3,-2 -1.6,-3.2 -0.2,-0.8 -0.4,-1.6 -0.4,-2.5 -0.2,-5.5 4.2,-10.1 9.6,-10.2 5.5,-0.2 10.1,4.2 10.2,9.6 0,0.9 -0.1,1.7 -0.3,2.6 -0.3,1.1 -0.8,2.3 -1.5,3.3 -0.2,0.4 -0.5,0.7 -0.8,1.1 -1.2,1.8 -1.9,3.9 -1.8,6.1 0.1,3.8 2.3,7.1 5.5,8.8 3.2,1.1 6.9,0.7 9.7,-1.5 1.8,-1.4 3,-3.2 3.6,-5.2 0.1,-0.5 0.2,-0.9 0.3,-1.3 0.4,-1.2 0.9,-2.2 1.7,-3.2 0.5,-0.6 1.1,-1.3 1.8,-1.8 4.3,-3.3 10.5,-2.4 13.8,1.9 3.3,4.3 2.4,10.5 -1.9,13.8 -0.7,0.5 -1.5,0.9 -2.2,1.3 -1.2,0.4 -2.4,0.7 -3.5,0.7 -0.4,0 -0.8,0 -1.3,-0.1 -2,0.1 -4.1,0.8 -5.9,2.1 -3.2,2.4 -4.8,11 -4.2,14.7 0,0 1.4,1.3 2.1,1.9 l 1.9,1.3 c 0.6,0.5 1.3,0.9 1.9,1.4 l 3.7,3 c 0.2,0.3 0.6,0.5 0.9,0.8 l 0.9,0.9 1.7,1.7 1.8,1.7 1.6,1.9 c 1.1,1.3 2.3,2.5 3.3,4 2.2,2.8 4.2,5.9 5.8,9.2 0.7,1.7 1.5,3.5 2,5.3 0.5,1.8 1,3.6 1.2,5.6 0.1,1 0.2,1.9 0.2,2.9 0,0.3 0,0.6 0,0.9 9,-11.1 13.4,-27.1 13.4,-48 0,-22.8 -5.3,-39.7 -15.9,-50.8 -10.6,-11.1 -27.7,-16.7 -51.5,-16.7 -23.7,0 -40.9,5.6 -51.5,16.7 -10.6,11.1 -15.9,28.1 -15.9,50.8 0,22.8 5.3,39.7 15.9,50.8 10.6,11.1 27.8,16.7 51.5,16.7 10.2,0 19.2,-1 27,-3.1 5,-24 -3.1,-34.7 -13.3,-44.6 z"
   id="path54"
   style="mix-blend-mode:multiply" />
</svg>
