<?xml version="1.0" encoding="UTF-8" standalone="no"?>
<svg
   xmlns:dc="http://purl.org/dc/elements/1.1/"
   xmlns:cc="http://creativecommons.org/ns#"
   xmlns:rdf="http://www.w3.org/1999/02/22-rdf-syntax-ns#"
   xmlns:svg="http://www.w3.org/2000/svg"
   xmlns="http://www.w3.org/2000/svg"
   xmlns:sodipodi="http://sodipodi.sourceforge.net/DTD/sodipodi-0.dtd"
   xmlns:inkscape="http://www.inkscape.org/namespaces/inkscape"
   version="1.1"
   id="Ebene_1"
   x="0px"
   y="0px"
   width="646.59998"
   height="230.39999"
   viewBox="0 0 646.59998 230.39999"
   xml:space="preserve"
   sodipodi:docname="wort-bunt.svg"
   inkscape:version="1.0.2 (e86c870879, 2021-01-15)"><metadata
   id="metadata1289"><rdf:RDF><cc:Work
       rdf:about=""><dc:format>image/svg+xml</dc:format><dc:type
         rdf:resource="http://purl.org/dc/dcmitype/StillImage" /><dc:title></dc:title></cc:Work></rdf:RDF></metadata><defs
   id="defs1287" /><sodipodi:namedview
   pagecolor="#ffffff"
   bordercolor="#666666"
   borderopacity="1"
   objecttolerance="10"
   gridtolerance="10"
   guidetolerance="10"
   inkscape:pageopacity="0"
   inkscape:pageshadow="2"
   inkscape:window-width="1912"
   inkscape:window-height="984"
   id="namedview1285"
   showgrid="false"
   fit-margin-top="0"
   fit-margin-left="0"
   fit-margin-right="0"
   fit-margin-bottom="0"
   inkscape:zoom="1.7087379"
   inkscape:cx="323.3"
   inkscape:cy="115.2"
   inkscape:window-x="1920"
   inkscape:window-y="0"
   inkscape:window-maximized="1"
   inkscape:current-layer="Ebene_1" />
<style
   type="text/css"
   id="style1230">
	.st0{enable-background:new    ;}
	.st1{fill:#17BEBB;}
	.st2{fill:#F26430;}
</style>
<g
   id="g1282"
   transform="translate(-88.7,-79.8)">
	<path
   d="m 88.7,154.6 v -32.8 h 12.7 v -20.4 l 50.9,-12.7 v 33.1 h 17.6 v 32.8 h -17.6 v 58 c 4.4,0.9 9.4,1.4 15,1.8 l -2.3,37.4 c -23.2,0 -38.3,-1.3 -45.3,-3.8 -8.7,-3.1 -14.1,-7.1 -16.3,-12.2 -1.4,-3.1 -2,-6.6 -2,-10.7 v -70.5 z"
   id="path1232" />
	<path
   d="m 401.2,249.1 -19.6,-50.4 h -1.8 v 50.4 H 328.9 V 83.6 l 50.9,-3.8 v 84 h 1.8 l 18.3,-42 h 55 l -29.5,60.6 30.8,66.7 z"
   id="path1234" />
	<path
   d="m 531.8,118 c 40.7,0 61.1,14 61.1,42 v 89.1 h -25.5 l -14.5,-14.5 c -4.9,5.8 -11.6,10.3 -20.1,13.5 -8.5,3.2 -16.5,4.8 -24.1,4.8 -7.6,0 -13.6,-0.6 -18.2,-1.8 -4.6,-1.2 -9.1,-3.2 -13.5,-6.1 -9.7,-6.1 -14.5,-17.5 -14.5,-34.1 0,-30.5 23.1,-45.8 69.2,-45.8 h 10.2 v -9.2 c -5.4,-0.3 -9.9,-0.5 -13.5,-0.5 -19.2,0 -35.6,2.3 -49.4,6.9 l -6.1,-36.4 C 490,120.6 509.6,118 531.8,118 Z M 514,205.3 v 10.4 h 10.4 c 7.5,0 12.3,-0.8 14.4,-2.5 2.1,-1.7 3.2,-3.9 3.2,-6.6 v -12 h -10.4 c -6.1,0 -10.6,0.6 -13.4,1.9 -2.8,1.3 -4.2,4.2 -4.2,8.8 z"
   id="path1236" />
	<path
   d="M 631.5,235.8 603,121.8 h 50.9 l 14,82.7 h 2.5 l 14,-82.7 h 50.9 l -31.7,127.3 c -4.8,16.6 -10.7,39.8 -17.8,45.5 -7.1,5.7 -17.4,8.5 -30.8,8.5 H 605.6 V 275 274 c 38.6,-6.8 41.3,-12 45,-15.4 2,-1.9 6.5,-18.6 7.9,-21.3 l -0.3,-1.5 z"
   id="path1238" />
	<g
   class="st0"
   id="g1278">
		<path
   class="st1"
   d="m 101.3,281.7 h 4.3 l 1.6,2.1 c 1.3,-1.9 3.6,-2.8 7,-2.8 1.7,0 3.3,0.3 4.5,1 1.2,0.7 2.2,1.6 2.9,2.7 1.2,2.1 1.8,4.7 1.8,7.7 0,3.6 -0.8,6.4 -2.4,8.2 -0.6,0.7 -1.5,1.3 -2.5,1.8 -1,0.5 -2.3,0.7 -3.7,0.7 h -4.9 v 6.4 l -8.6,0.6 z m 8.5,7.2 v 8.6 h 1.3 c 1,0 1.8,-0.1 2.3,-0.3 0.5,-0.2 0.7,-0.7 0.7,-1.5 v -8.4 h -1.3 c -0.6,0 -1.1,0 -1.5,0.1 -0.4,0.1 -0.7,0.2 -1,0.5 -0.3,0.2 -0.4,0.5 -0.5,1 z"
   id="path1240" />
		<path
   class="st1"
   d="m 127.8,281.7 h 4.3 l 2.4,2.4 c 1.7,-1.5 3.8,-2.6 6.4,-3 l 0.5,8.1 c -0.7,0 -1.6,0.2 -2.7,0.5 -1.1,0.3 -1.9,0.7 -2.3,1.2 v 12.3 h -8.6 z"
   id="path1242" />
		<path
   class="st1"
   d="m 146.7,301 c -1.8,-1.9 -2.7,-4.7 -2.7,-8.6 0,-3.9 0.9,-6.7 2.7,-8.6 1.8,-1.9 4.7,-2.8 8.7,-2.8 4,0 6.9,0.9 8.7,2.8 1.8,1.9 2.7,4.7 2.7,8.6 0,3.9 -0.9,6.7 -2.7,8.6 -1.8,1.9 -4.7,2.8 -8.7,2.8 -4,0 -6.9,-0.9 -8.7,-2.8 z m 6.6,-11.9 v 8.4 h 1.3 c 1,0 1.8,-0.1 2.3,-0.3 0.5,-0.2 0.7,-0.7 0.7,-1.5 v -8.4 h -1.3 c -1,0 -1.8,0.1 -2.3,0.3 -0.5,0.2 -0.7,0.7 -0.7,1.5 z"
   id="path1244" />
		<path
   class="st1"
   d="m 170.1,308.9 1.1,-6.4 c 2.4,0.8 5.3,1.2 8.5,1.2 1,0 1.7,0 2.1,-0.1 v -1.5 c -2.5,0 -4.2,-0.1 -5,-0.3 -0.8,-0.2 -1.3,-0.4 -1.5,-0.6 -0.2,-0.2 -0.4,-0.4 -0.4,-0.5 0,-0.1 -0.1,-0.3 -0.1,-0.6 l 1.3,-3.7 c -2.1,-0.4 -3.6,-1.1 -4.7,-2.3 -1.1,-1.2 -1.6,-3 -1.6,-5.5 0,-2.5 0.8,-4.4 2.5,-5.6 1.7,-1.3 4.4,-1.9 8.2,-1.9 1.4,0 2.6,0.1 3.7,0.3 l 3.7,-2.9 4.5,4.3 -2.4,2.9 c 0.4,1 0.6,2.3 0.6,3.9 0,2.3 -0.6,3.9 -1.7,5 -1.1,1.1 -3.1,1.8 -6,2 l -0.2,1 c 3.1,0.2 5.3,0.6 6.6,1.4 1.3,0.8 1.9,2.2 1.9,4.2 0,3.5 -1.7,5.6 -5,6.4 -1.7,0.4 -3.9,0.6 -6.7,0.6 -3,0 -6.1,-0.4 -9.4,-1.3 z m 7.7,-20.4 v 2.8 h 1.3 c 1,0 1.8,-0.1 2.3,-0.3 0.5,-0.2 0.7,-0.7 0.7,-1.5 v -2.8 h -1.3 c -1,0 -1.8,0.1 -2.3,0.3 -0.5,0.2 -0.7,0.8 -0.7,1.5 z"
   id="path1246" />
		<path
   class="st1"
   d="m 195.3,281.7 h 4.3 l 2.4,2.4 c 1.7,-1.5 3.8,-2.6 6.4,-3 l 0.5,8.1 c -0.7,0 -1.6,0.2 -2.7,0.5 -1.1,0.3 -1.9,0.7 -2.3,1.2 v 12.3 h -8.6 z"
   id="path1248" />
		<path
   class="st1"
   d="m 222.5,281 c 6.9,0 10.3,2.4 10.3,7.1 v 15 h -4.3 l -2.4,-2.4 c -0.8,1 -2,1.7 -3.4,2.3 -1.4,0.5 -2.8,0.8 -4.1,0.8 -1.3,0 -2.3,-0.1 -3.1,-0.3 -0.8,-0.2 -1.5,-0.5 -2.3,-1 -1.6,-1 -2.4,-2.9 -2.4,-5.8 0,-5.2 3.9,-7.7 11.7,-7.7 h 1.7 v -1.5 c -0.9,-0.1 -1.7,-0.1 -2.3,-0.1 -3.2,0 -6,0.4 -8.3,1.2 l -1,-6.1 c 2.9,-1 6.2,-1.5 9.9,-1.5 z m -3,14.8 v 1.8 h 1.8 c 1.3,0 2.1,-0.1 2.4,-0.4 0.4,-0.3 0.5,-0.7 0.5,-1.1 v -2 h -1.8 c -1,0 -1.8,0.1 -2.3,0.3 -0.3,0.1 -0.6,0.6 -0.6,1.4 z"
   id="path1250" />
		<path
   class="st1"
   d="m 249.7,288.1 h -0.6 c -0.7,0 -1.2,0 -1.5,0.1 -0.3,0.1 -0.6,0.2 -0.9,0.5 -0.3,0.3 -0.4,0.8 -0.4,1.4 v 13.1 h -8.6 v -21.5 h 4.3 l 1.9,2 c 1.7,-1.7 4,-2.6 6.9,-2.6 2.9,0 4.9,0.6 6.1,1.8 1.7,-1.2 3.8,-1.8 6.1,-1.8 2.3,0 4.1,0.4 5.4,1.3 1.3,0.9 1.9,2.1 1.9,3.6 v 17.2 h -8.6 v -15 h -0.6 c -0.6,0 -1.1,0 -1.4,0.1 -0.3,0.1 -0.7,0.2 -0.9,0.5 -0.3,0.3 -0.4,0.6 -0.5,1.2 v 13.3 h -8.6 z"
   id="path1252" />
		<path
   class="st1"
   d="m 287.4,288.1 h -0.6 c -0.7,0 -1.2,0 -1.5,0.1 -0.3,0.1 -0.6,0.2 -0.9,0.5 -0.3,0.3 -0.4,0.8 -0.4,1.4 v 13.1 h -8.6 v -21.5 h 4.3 l 1.9,2 c 1.7,-1.7 4,-2.6 6.9,-2.6 2.9,0 4.9,0.6 6.1,1.8 1.7,-1.2 3.8,-1.8 6.1,-1.8 2.3,0 4.1,0.4 5.4,1.3 1.3,0.9 1.9,2.1 1.9,3.6 v 17.2 h -8.6 v -15 h -0.6 c -0.6,0 -1.1,0 -1.4,0.1 -0.3,0.1 -0.7,0.2 -0.9,0.5 -0.3,0.3 -0.4,0.6 -0.5,1.2 v 13.3 h -8.6 z"
   id="path1254" />
		<path
   class="st1"
   d="m 313.5,280.3 c -0.6,-0.5 -1,-1.4 -1,-2.7 0,-1.3 0.3,-2.2 1,-2.7 0.7,-0.5 1.9,-0.8 3.8,-0.8 1.9,0 3.2,0.3 3.8,0.8 0.6,0.5 1,1.4 1,2.7 0,1.3 -0.3,2.2 -1,2.7 -0.6,0.5 -1.9,0.7 -3.8,0.7 -1.8,0 -3.1,-0.2 -3.8,-0.7 z m -0.4,22.8 v -20.4 l 8.6,-1.1 v 21.5 z"
   id="path1256" />
		<path
   class="st1"
   d="m 331.2,281.7 2.1,2.1 c 2.7,-1.9 5.5,-2.8 8.6,-2.8 2,0 3.6,0.4 4.7,1.3 1.1,0.9 1.7,2.1 1.7,3.6 v 17.2 h -8.6 v -15 h -1.3 c -1,0 -1.7,0.1 -2.2,0.3 -0.5,0.2 -0.8,0.7 -0.8,1.3 v 13.4 h -8.6 v -21.5 h 4.4 z"
   id="path1258" />
		<path
   class="st1"
   d="m 352.3,308.9 1.1,-6.4 c 2.4,0.8 5.3,1.2 8.5,1.2 1,0 1.7,0 2.1,-0.1 v -1.5 c -2.5,0 -4.2,-0.1 -5,-0.3 -0.8,-0.2 -1.3,-0.4 -1.5,-0.6 -0.2,-0.2 -0.4,-0.4 -0.4,-0.5 0,-0.1 -0.1,-0.3 -0.1,-0.6 l 1.3,-3.7 c -2.1,-0.4 -3.6,-1.1 -4.7,-2.3 -1.1,-1.2 -1.6,-3 -1.6,-5.5 0,-2.5 0.8,-4.4 2.5,-5.6 1.7,-1.3 4.4,-1.9 8.2,-1.9 1.4,0 2.6,0.1 3.7,0.3 l 3.7,-2.9 4.5,4.3 -2.4,2.9 c 0.4,1 0.6,2.3 0.6,3.9 0,2.3 -0.6,3.9 -1.7,5 -1.1,1.1 -3.1,1.8 -6,2 l -0.2,1 c 3.1,0.2 5.3,0.6 6.6,1.4 1.3,0.8 1.9,2.2 1.9,4.2 0,3.5 -1.7,5.6 -5,6.4 -1.7,0.4 -3.9,0.6 -6.7,0.6 -2.9,0 -6,-0.4 -9.4,-1.3 z m 7.8,-20.4 v 2.8 h 1.3 c 1,0 1.8,-0.1 2.3,-0.3 0.5,-0.2 0.7,-0.7 0.7,-1.5 v -2.8 H 363 c -1,0 -1.8,0.1 -2.3,0.3 -0.5,0.2 -0.6,0.8 -0.6,1.5 z"
   id="path1260" />
		<path
   class="st1"
   d="M 393.5,274.6 V 297 c 0.9,0.2 1.6,0.3 2.1,0.3 l -0.4,6.3 c -3.7,0 -6.1,-0.2 -7.3,-0.6 -1.5,-0.5 -2.4,-1.2 -2.7,-2.1 -0.2,-0.5 -0.3,-1.1 -0.3,-1.8 v -23.9 z"
   id="path1262" />
		<path
   class="st1"
   d="m 409.4,281 c 6.9,0 10.3,2.4 10.3,7.1 v 15 h -4.3 l -2.4,-2.4 c -0.8,1 -2,1.7 -3.4,2.3 -1.4,0.5 -2.8,0.8 -4.1,0.8 -1.3,0 -2.3,-0.1 -3.1,-0.3 -0.8,-0.2 -1.5,-0.5 -2.3,-1 -1.6,-1 -2.4,-2.9 -2.4,-5.8 0,-5.2 3.9,-7.7 11.7,-7.7 h 1.7 v -1.5 c -0.9,-0.1 -1.7,-0.1 -2.3,-0.1 -3.2,0 -6,0.4 -8.3,1.2 l -1,-6.1 c 2.8,-1 6.1,-1.5 9.9,-1.5 z m -3,14.8 v 1.8 h 1.8 c 1.3,0 2.1,-0.1 2.4,-0.4 0.4,-0.3 0.5,-0.7 0.5,-1.1 v -2 h -1.8 c -1,0 -1.8,0.1 -2.3,0.3 -0.4,0.1 -0.6,0.6 -0.6,1.4 z"
   id="path1264" />
		<path
   class="st1"
   d="m 428.8,281.7 2.1,2.1 c 2.7,-1.9 5.5,-2.8 8.6,-2.8 2,0 3.6,0.4 4.7,1.3 1.1,0.9 1.7,2.1 1.7,3.6 v 17.2 h -8.6 v -15 H 436 c -1,0 -1.7,0.1 -2.2,0.3 -0.5,0.2 -0.8,0.7 -0.8,1.3 v 13.4 h -8.6 v -21.5 h 4.4 z"
   id="path1266" />
		<path
   class="st1"
   d="m 449.9,308.9 1.1,-6.4 c 2.4,0.8 5.3,1.2 8.5,1.2 1,0 1.7,0 2.1,-0.1 v -1.5 c -2.5,0 -4.2,-0.1 -5,-0.3 -0.8,-0.2 -1.3,-0.4 -1.5,-0.6 -0.2,-0.2 -0.4,-0.4 -0.4,-0.5 0,-0.1 -0.1,-0.3 -0.1,-0.6 l 1.3,-3.7 c -2.1,-0.4 -3.6,-1.1 -4.7,-2.3 -1.1,-1.2 -1.6,-3 -1.6,-5.5 0,-2.5 0.8,-4.4 2.5,-5.6 1.7,-1.3 4.4,-1.9 8.2,-1.9 1.4,0 2.6,0.1 3.7,0.3 l 3.7,-2.9 4.5,4.3 -2.4,2.9 c 0.4,1 0.6,2.3 0.6,3.9 0,2.3 -0.6,3.9 -1.7,5 -1.1,1.1 -3.1,1.8 -6,2 l -0.2,1 c 3.1,0.2 5.3,0.6 6.6,1.4 1.3,0.8 1.9,2.2 1.9,4.2 0,3.5 -1.7,5.6 -5,6.4 -1.7,0.4 -3.9,0.6 -6.7,0.6 -2.9,0 -6,-0.4 -9.4,-1.3 z m 7.8,-20.4 v 2.8 h 1.3 c 1,0 1.8,-0.1 2.3,-0.3 0.5,-0.2 0.7,-0.7 0.7,-1.5 v -2.8 h -1.3 c -1,0 -1.8,0.1 -2.3,0.3 -0.5,0.2 -0.7,0.8 -0.7,1.5 z"
   id="path1268" />
		<path
   class="st1"
   d="m 483.3,281.7 v 15.9 h 1.3 c 1,0 1.8,-0.1 2.3,-0.3 0.5,-0.2 0.7,-0.7 0.7,-1.5 v -14 h 8.6 v 21.5 h -4.3 l -2.5,-2.4 c -1.7,2.1 -4.2,3.1 -7.3,3.1 -2.5,0 -4.4,-0.5 -5.6,-1.6 -1.2,-1.1 -1.8,-2.9 -1.8,-5.5 v -15 h 8.6 z"
   id="path1270" />
		<path
   class="st1"
   d="m 511.6,281 c 6.9,0 10.3,2.4 10.3,7.1 v 15 h -4.3 l -2.4,-2.4 c -0.8,1 -2,1.7 -3.4,2.3 -1.4,0.5 -2.8,0.8 -4.1,0.8 -1.3,0 -2.3,-0.1 -3.1,-0.3 -0.8,-0.2 -1.5,-0.5 -2.3,-1 -1.6,-1 -2.4,-2.9 -2.4,-5.8 0,-5.2 3.9,-7.7 11.7,-7.7 h 1.7 v -1.5 c -0.9,-0.1 -1.7,-0.1 -2.3,-0.1 -3.2,0 -6,0.4 -8.3,1.2 l -1,-6.1 c 2.9,-1 6.2,-1.5 9.9,-1.5 z m -3,14.8 v 1.8 h 1.8 c 1.3,0 2.1,-0.1 2.4,-0.4 0.4,-0.3 0.5,-0.7 0.5,-1.1 v -2 h -1.8 c -1,0 -1.8,0.1 -2.3,0.3 -0.4,0.1 -0.6,0.6 -0.6,1.4 z"
   id="path1272" />
		<path
   class="st1"
   d="m 525.6,308.9 1.1,-6.4 c 2.4,0.8 5.3,1.2 8.5,1.2 1,0 1.7,0 2.1,-0.1 v -1.5 c -2.5,0 -4.2,-0.1 -5,-0.3 -0.8,-0.2 -1.3,-0.4 -1.5,-0.6 -0.2,-0.2 -0.4,-0.4 -0.4,-0.5 0,-0.1 -0.1,-0.3 -0.1,-0.6 l 1.3,-3.7 c -2.1,-0.4 -3.6,-1.1 -4.7,-2.3 -1.1,-1.2 -1.6,-3 -1.6,-5.5 0,-2.5 0.8,-4.4 2.5,-5.6 1.7,-1.3 4.4,-1.9 8.2,-1.9 1.4,0 2.6,0.1 3.7,0.3 l 3.7,-2.9 4.5,4.3 -2.4,2.9 c 0.4,1 0.6,2.3 0.6,3.9 0,2.3 -0.6,3.9 -1.7,5 -1.1,1.1 -3.1,1.8 -6,2 l -0.2,1 c 3.1,0.2 5.3,0.6 6.6,1.4 1.3,0.8 1.9,2.2 1.9,4.2 0,3.5 -1.7,5.6 -5,6.4 -1.7,0.4 -3.9,0.6 -6.7,0.6 -2.9,0 -6,-0.4 -9.4,-1.3 z m 7.8,-20.4 v 2.8 h 1.3 c 1,0 1.8,-0.1 2.3,-0.3 0.5,-0.2 0.7,-0.7 0.7,-1.5 v -2.8 h -1.3 c -1,0 -1.8,0.1 -2.3,0.3 -0.5,0.2 -0.7,0.8 -0.7,1.5 z"
   id="path1274" />
		<path
   class="st1"
   d="m 559.2,295.8 v 1.5 c 0.9,0.1 1.7,0.1 2.6,0.1 2.7,0 5.4,-0.4 8.1,-1.3 l 1,6.3 c -3.2,0.9 -6.4,1.3 -9.5,1.3 -4,0 -6.9,-0.9 -8.7,-2.8 -1.8,-1.9 -2.7,-4.7 -2.7,-8.6 0,-3.9 0.9,-6.7 2.7,-8.6 1.8,-1.9 4.7,-2.8 8.7,-2.8 4,0 6.8,0.5 8.3,1.6 1.5,1.1 2.3,3.1 2.3,6.1 0,2.5 -0.9,4.3 -2.7,5.4 -2,1.3 -5.3,1.8 -10.1,1.8 z m 0,-6.7 v 1.8 h 1.8 c 1,0 1.8,-0.1 2.3,-0.3 0.5,-0.2 0.7,-0.7 0.7,-1.5 v -1.8 h -1.8 c -1,0 -1.8,0.1 -2.3,0.3 -0.5,0.2 -0.7,0.7 -0.7,1.5 z"
   id="path1276" />
	</g>
	<path
   class="st2"
   d="m 260.1,205.6 c -3.7,2.3 -9,8 -9.6,11.3 -0.4,2.2 -0.1,4.4 0.8,6.3 0.2,0.3 0.5,0.7 0.7,1.1 0.6,1 0.9,2.2 1,3.5 0.1,0.8 0.1,1.7 -0.1,2.5 -1,5.4 -6.1,9 -11.5,8 -5.4,-1 -9,-6.1 -8,-11.5 0.1,-0.8 0.4,-1.6 0.8,-2.4 0.5,-1.1 1.3,-2.1 2.1,-2.9 0.3,-0.3 0.6,-0.6 1,-0.8 1.5,-1.4 2.6,-3.3 3,-5.5 0.6,-3.5 -0.7,-7 -3.2,-9.3 -2.9,-2.1 -6.8,-2.5 -10.3,-0.9 -2,1 -3.6,2.5 -4.6,4.3 -0.2,0.4 -0.4,0.8 -0.6,1.2 -0.6,1.1 -1.4,2 -2.3,2.8 -0.6,0.6 -1.3,1.1 -2.1,1.4 -4.9,2.4 -10.8,0.3 -13.1,-4.6 -2.4,-4.9 -0.3,-10.8 4.6,-13.1 0.8,-0.3 1.6,-0.6 2.4,-0.8 1.2,-0.2 2.4,-0.2 3.6,0 0.4,0 0.8,0.2 1.2,0.3 2.1,0.4 4.2,0.1 6.3,-0.8 3.4,-1.7 5.5,-5 5.8,-8.5 -0.1,-3.4 -1.7,-6.7 -4.9,-8.7 -1.9,-1.1 -4,-1.6 -6.1,-1.4 -0.4,0.1 -0.9,0.2 -1.3,0.2 -1.2,0.2 -2.4,0 -3.6,-0.3 -0.9,-0.3 -1.6,-0.6 -2.4,-1 -4.6,-2.8 -6,-8.9 -3.2,-13.6 2.8,-4.6 8.9,-6 13.6,-3.2 0.8,0.5 1.5,1 2,1.6 0.8,0.9 1.5,1.9 2,3 0.2,0.4 0.3,0.8 0.4,1.3 0.8,1.9 2.2,3.7 4.1,4.8 3.1,1.9 6.7,1.9 9.7,0.5 3.2,-1.8 5.3,-5.3 5.2,-9.2 -0.1,-2.2 -0.9,-4.3 -2.1,-5.9 -0.2,-0.3 -0.6,-0.7 -0.8,-1 -0.7,-0.9 -1.3,-2 -1.6,-3.2 -0.2,-0.8 -0.4,-1.6 -0.4,-2.5 -0.2,-5.5 4.2,-10.1 9.6,-10.2 5.5,-0.2 10.1,4.2 10.2,9.6 0,0.9 -0.1,1.7 -0.3,2.6 -0.3,1.1 -0.8,2.3 -1.5,3.3 -0.2,0.4 -0.5,0.7 -0.8,1.1 -1.2,1.8 -1.9,3.9 -1.8,6.1 0.1,3.8 2.3,7.1 5.5,8.8 3.2,1.1 6.9,0.7 9.7,-1.5 1.8,-1.4 3,-3.2 3.6,-5.2 0.1,-0.5 0.2,-0.9 0.3,-1.3 0.4,-1.2 0.9,-2.2 1.7,-3.2 0.5,-0.6 1.1,-1.3 1.8,-1.8 4.3,-3.3 10.5,-2.4 13.8,1.9 3.3,4.3 2.4,10.5 -1.9,13.8 -0.7,0.5 -1.5,0.9 -2.2,1.3 -1.2,0.4 -2.4,0.7 -3.5,0.7 -0.4,0 -0.8,0 -1.3,-0.1 -2,0.1 -4.1,0.8 -5.9,2.1 -3.2,2.4 -4.8,11 -4.2,14.7 0,0 1.4,1.3 2.1,1.9 l 1.9,1.3 c 0.6,0.5 1.3,0.9 1.9,1.4 l 3.7,3 c 0.2,0.3 0.6,0.5 0.9,0.8 l 0.9,0.9 1.7,1.7 1.8,1.7 1.6,1.9 c 1.1,1.3 2.3,2.5 3.3,4 2.2,2.8 4.2,5.9 5.8,9.2 0.7,1.7 1.5,3.5 2,5.3 0.5,1.8 1,3.6 1.2,5.6 0.1,1 0.2,1.9 0.2,2.9 0,0.3 0,0.6 0,0.9 9,-11.1 13.4,-27.1 13.4,-48 0,-22.8 -5.3,-39.7 -15.9,-50.8 -10.6,-11.1 -27.7,-16.7 -51.5,-16.7 -23.7,0 -40.9,5.6 -51.5,16.7 -10.6,11.1 -15.9,28.1 -15.9,50.8 0,22.8 5.3,39.7 15.9,50.8 10.6,11.1 27.8,16.7 51.5,16.7 10.2,0 19.2,-1 27,-3.1 5,-24 -3.1,-34.7 -13.3,-44.6 z"
   id="path1280" />
</g>
</svg>
